<?xml version="1.0" standalone="no"?>
<!DOCTYPE svg PUBLIC "-//W3C//DTD SVG 20010904//EN"
 "http://www.w3.org/TR/2001/REC-SVG-20010904/DTD/svg10.dtd">
<svg version="1.0" xmlns="http://www.w3.org/2000/svg"
 width="1080.000000pt" height="1080.000000pt" viewBox="0 0 1080.000000 1080.000000"
 preserveAspectRatio="xMidYMid meet">

<g transform="translate(0.000000,1080.000000) scale(0.100000,-0.100000)"
fill="#000000" stroke="none">
<path d="M8560 7930 l0 -1760 1120 0 1120 0 0 130 0 130 -495 0 -495 0 0 140
0 140 120 0 120 0 0 280 0 280 -122 0 -123 0 0 1078 0 1077 498 3 497 2 0 130
0 130 -1120 0 -1120 0 0 -1760z"/>
<path d="M4945 9249 c-571 -56 -1075 -417 -1331 -954 -123 -259 -178 -499
-210 -910 -25 -340 -29 -538 -11 -634 9 -46 18 -85 20 -88 2 -2 20 4 40 12 20
8 52 15 71 15 45 0 62 -25 71 -105 l7 -60 -47 0 c-39 -1 -51 -5 -71 -28 -24
-28 -30 -74 -15 -125 l6 -24 24 26 c25 27 52 31 109 20 23 -5 34 -14 41 -37
16 -44 14 -52 -14 -65 -33 -15 -75 -103 -75 -158 0 -58 53 -162 87 -170 43
-11 74 21 88 90 4 18 10 25 15 20 10 -10 14 -39 45 -304 51 -430 174 -810 351
-1084 l56 -87 5 -232 c2 -128 0 -258 -5 -290 -9 -56 -8 -58 17 -76 14 -10 157
-85 316 -166 483 -247 478 -244 497 -234 9 5 23 9 30 9 7 -1 3 -6 -10 -14 -23
-12 -21 -13 37 -44 33 -17 66 -30 73 -28 7 1 9 1 5 -2 -5 -2 2 -10 15 -16 77
-42 252 -133 373 -196 325 -169 379 -207 476 -330 33 -41 64 -81 70 -88 7 -9
3 -15 -16 -22 -14 -5 -25 -12 -25 -15 0 -3 647 -5 1438 -5 1011 1 1445 -2
1465 -9 38 -15 47 -14 41 4 -4 9 -13 13 -24 10 -9 -3 -30 0 -46 6 -16 7 -37
11 -46 10 -10 -1 -18 3 -18 10 0 7 -12 10 -32 7 -18 -3 -45 -2 -59 2 -15 5
-31 4 -36 -1 -6 -6 -102 23 -254 76 -134 48 -318 113 -409 145 -91 32 -229 80
-307 106 l-141 49 -28 109 c-60 243 -175 502 -327 740 -18 27 -31 53 -30 58 2
4 -3 8 -10 8 -8 0 -29 21 -48 48 -53 74 -147 181 -222 253 l-68 65 19 25 c59
75 102 203 102 303 0 89 -35 204 -84 279 l-42 64 18 64 c34 123 77 355 93 504
32 308 42 349 65 257 15 -63 36 -83 89 -84 39 0 41 -2 56 -49 9 -27 20 -49 25
-49 11 0 89 181 148 346 61 168 98 313 107 409 8 88 -8 305 -40 545 -92 681
-137 870 -275 1155 -82 170 -163 286 -295 423 -293 306 -638 476 -1040 512
-126 11 -269 -1 -394 -35 -37 -9 -61 -11 -78 -4 -82 31 -301 51 -428 38z m202
-1068 c111 -23 225 -41 253 -41 29 0 154 21 278 46 194 39 239 45 312 41 101
-5 135 -19 161 -66 11 -20 41 -72 67 -116 48 -81 273 -471 494 -860 66 -115
125 -215 131 -220 19 -16 44 -67 52 -104 l7 -34 -68 7 c-59 6 -72 11 -89 34
-41 56 -122 128 -165 149 -90 42 -149 48 -462 48 -351 0 -329 8 -336 -114 -6
-101 1 -111 77 -112 l56 0 -85 -19 c-47 -10 -126 -28 -176 -39 -194 -44 -349
-38 -619 23 -136 31 -145 34 -94 35 30 1 60 6 67 13 26 26 5 190 -26 204 -9 4
-122 9 -250 12 -355 6 -483 -15 -586 -98 -38 -31 -57 -52 -99 -112 -9 -13 -36
-20 -117 -27 -57 -6 -107 -8 -109 -5 -10 10 22 163 64 305 46 155 57 210 120
563 19 109 42 212 50 230 27 55 179 154 335 219 238 98 413 107 757 38z m1647
-887 c3 -8 2 -12 -4 -9 -6 3 -10 10 -10 16 0 14 7 11 14 -7z m53 -156 c-3 -8
-6 -5 -6 6 -1 11 2 17 5 13 3 -3 4 -12 1 -19z m10 -60 c-3 -7 -5 -2 -5 12 0
14 2 19 5 13 2 -7 2 -19 0 -25z m-1977 -362 c126 -23 177 -49 208 -106 22 -41
23 -53 19 -140 -7 -114 -26 -190 -72 -288 -92 -195 -279 -282 -580 -269 -71 3
-153 12 -181 20 -73 21 -151 65 -186 107 -77 93 -128 274 -128 454 0 86 4 107
23 141 29 52 89 82 187 94 125 16 600 7 710 -13z m1821 -4 c63 -21 95 -45 117
-87 42 -84 8 -372 -60 -510 -28 -55 -94 -122 -149 -150 -63 -33 -192 -55 -316
-55 -362 0 -557 162 -603 503 -26 188 19 262 181 293 153 29 211 33 489 30
248 -3 282 -5 341 -24z m-2877 -239 c10 -37 26 -112 37 -166 38 -190 100 -323
182 -390 87 -71 170 -99 341 -118 192 -20 394 9 531 78 66 34 182 153 221 228
29 56 45 99 105 295 39 127 107 179 200 151 59 -18 86 -62 130 -213 108 -368
257 -502 599 -539 191 -21 415 12 527 78 59 34 127 113 163 187 29 63 67 197
94 336 15 80 33 136 42 128 2 -3 13 -37 24 -76 19 -70 19 -70 -1 -164 -60
-279 -143 -551 -196 -651 -15 -26 -70 -91 -123 -145 -150 -151 -207 -218 -282
-332 -39 -58 -74 -106 -79 -108 -5 -2 -9 16 -9 40 0 99 -41 173 -115 211 -98
48 -506 126 -605 114 -26 -3 -85 -20 -129 -38 -90 -36 -87 -36 -206 15 -36 15
-79 26 -108 26 -95 0 -375 -51 -525 -96 -107 -32 -157 -78 -167 -151 -4 -26
-10 -66 -14 -88 l-7 -40 -48 75 c-78 120 -132 186 -278 336 -75 78 -144 156
-153 175 -56 107 -156 448 -190 644 -15 91 -20 240 -9 269 11 29 31 0 48 -71z
m2306 -1342 c5 -11 10 -50 10 -88 -1 -134 -48 -285 -127 -406 -93 -141 -146
-154 -354 -84 -237 80 -289 81 -521 2 -141 -48 -191 -54 -244 -29 -42 20 -103
88 -144 160 -68 122 -115 335 -91 422 l12 42 724 0 c706 0 725 0 735 -19z
m457 -598 c-3 -10 -5 -4 -5 12 0 17 2 24 5 18 2 -7 2 -21 0 -30z m0 -65 c-3
-7 -5 -2 -5 12 0 14 2 19 5 13 2 -7 2 -19 0 -25z m-2242 -58 c3 -6 -1 -7 -9
-4 -18 7 -21 14 -7 14 6 0 13 -4 16 -10z m2232 -242 c-1 -40 -3 -10 -3 67 0
77 1 110 3 73 2 -37 2 -100 0 -140z m-2110 90 c-3 -8 -6 -5 -6 6 -1 11 2 17 5
13 3 -3 4 -12 1 -19z m34 -15 c13 -16 12 -17 -3 -4 -17 13 -22 21 -14 21 2 0
10 -8 17 -17z m47 -48 c-3 -3 -9 2 -12 12 -6 14 -5 15 5 6 7 -7 10 -15 7 -18z
m1672 -19 c0 -2 -8 -10 -17 -17 -16 -13 -17 -12 -4 4 13 16 21 21 21 13z
m-1599 -33 c13 -16 12 -17 -3 -4 -10 7 -18 15 -18 17 0 8 8 3 21 -13z m1559 3
c0 -2 -8 -10 -17 -17 -16 -13 -17 -12 -4 4 13 16 21 21 21 13z m-1509 -43 c13
-16 12 -17 -3 -4 -17 13 -22 21 -14 21 2 0 10 -8 17 -17z m1459 3 c0 -2 -8
-10 -17 -17 -16 -13 -17 -12 -4 4 13 16 21 21 21 13z m460 -96 c0 -25 -4 -50
-8 -57 -4 -6 -7 20 -7 57 0 37 3 63 7 57 4 -7 8 -32 8 -57z m-1855 50 c3 -6
-1 -7 -9 -4 -18 7 -21 14 -7 14 6 0 13 -4 16 -10z m1275 -39 c0 -5 -7 -12 -16
-15 -14 -5 -15 -4 -4 9 14 17 20 19 20 6z m-1120 -56 c0 -12 -19 -12 -23 0 -4
9 -1 12 9 8 7 -3 14 -7 14 -8z m1010 -10 c0 -6 -76 -45 -87 -45 -4 1 12 12 37
25 50 27 50 27 50 20z m-813 -81 c-3 -3 -12 -4 -19 -1 -8 3 -5 6 6 6 11 1 17
-2 13 -5z m163 -49 c19 -7 28 -13 20 -13 -8 0 -31 6 -50 13 -19 7 -28 13 -20
13 8 0 31 -6 50 -13z m1357 -7 c-3 -8 -6 -5 -6 6 -1 11 2 17 5 13 3 -3 4 -12
1 -19z m-1040 6 c-3 -3 -12 -4 -19 -1 -8 3 -5 6 6 6 11 1 17 -2 13 -5z m-99
-21 c-10 -2 -28 -2 -40 0 -13 2 -5 4 17 4 22 1 32 -1 23 -4z m1149 -35 c-3 -7
-5 -2 -5 12 0 14 2 19 5 13 2 -7 2 -19 0 -25z m42 -142 c-1 -15 -28 46 -28 64
0 8 6 0 14 -19 8 -18 15 -38 14 -45z m8 -48 c-3 -7 -5 -2 -5 12 0 14 2 19 5
13 2 -7 2 -19 0 -25z m-1572 -8 c3 -5 1 -10 -4 -10 -6 0 -11 5 -11 10 0 6 2
10 4 10 3 0 8 -4 11 -10z m390 -170 c3 -5 1 -10 -4 -10 -6 0 -11 5 -11 10 0 6
2 10 4 10 3 0 8 -4 11 -10z m1117 -42 c-7 -7 -12 -19 -12 -27 0 -15 -60 -114
-72 -119 -5 -2 -8 -9 -8 -15 -1 -18 -90 -111 -98 -103 -4 4 12 24 34 44 23 20
52 55 65 77 13 22 31 48 40 58 10 11 20 31 24 45 7 27 23 52 33 52 3 0 1 -5
-6 -12z m-935 -63 c0 -8 -4 -15 -9 -15 -10 0 -11 14 -1 23 9 10 10 9 10 -8z
m703 -248 c-19 -18 -27 -23 -19 -12 23 31 44 52 48 48 3 -2 -10 -18 -29 -36z
m-54 -34 c-2 -9 -8 -19 -14 -21 -14 -4 -15 0 -6 22 8 21 23 20 20 -1z m-106
-78 c0 -2 -10 -9 -22 -15 -22 -11 -22 -10 -4 4 21 17 26 19 26 11z"/>
<path d="M4470 6567 c-25 -7 -67 -24 -94 -37 -57 -28 -156 -120 -156 -144 0
-22 4 -21 68 23 68 45 136 81 156 81 11 0 10 -7 -5 -37 -34 -66 -18 -147 37
-198 24 -22 36 -25 105 -25 43 0 89 4 102 9 67 26 97 142 58 220 l-22 42 49
-25 c27 -14 76 -48 108 -75 32 -28 63 -51 67 -51 16 0 -39 83 -81 122 -24 22
-73 54 -110 71 -55 26 -81 32 -152 34 -48 2 -104 -3 -130 -10z m54 -103 c22
-21 20 -57 -3 -78 -38 -34 -90 8 -72 57 15 38 49 47 75 21z m154 -134 c-13
-20 -38 -35 -38 -23 0 10 32 43 42 43 4 0 3 -9 -4 -20z"/>
<path d="M6118 6569 c-63 -15 -151 -65 -194 -111 -89 -94 -103 -146 -18 -68
47 42 138 100 159 100 2 0 -4 -15 -15 -32 -52 -86 8 -228 96 -228 37 0 37 0
31 36 -3 20 -4 34 -1 31 4 -3 17 -2 30 3 35 14 56 3 43 -21 -7 -13 -6 -19 1
-19 6 0 8 -4 5 -10 -8 -13 31 -13 54 0 10 5 28 33 41 61 26 61 22 122 -11 163
-11 14 -15 26 -9 26 17 0 119 -54 179 -94 29 -20 55 -36 57 -36 15 0 -2 36
-32 69 -100 111 -271 164 -416 130z m30 -137 c4 -39 -12 -62 -42 -62 -29 0
-46 18 -46 50 0 35 19 52 55 48 26 -3 30 -7 33 -36z m122 -107 c-7 -8 -18 -15
-24 -15 -6 0 -2 7 8 15 25 19 32 19 16 0z"/>
<path d="M5052 5743 c-14 -5 -52 -75 -52 -95 0 -7 10 3 21 22 12 19 30 45 42
58 20 21 16 26 -11 15z"/>
<path d="M5723 5739 c9 -6 31 -33 48 -62 25 -42 29 -46 24 -22 -9 39 -52 95
-73 95 -16 -1 -16 -1 1 -11z"/>
<path d="M5080 5551 c0 -10 7 -24 15 -31 15 -13 188 -67 245 -76 33 -6 31 -4
-25 31 -33 20 -67 42 -75 50 -31 26 -80 45 -120 45 -32 0 -40 -3 -40 -19z"/>
<path d="M5605 5556 c-16 -8 -55 -32 -85 -55 -30 -23 -65 -44 -77 -47 -13 -4
-23 -10 -23 -15 0 -4 21 -1 48 7 26 8 84 24 129 35 81 21 133 55 118 78 -9 15
-74 13 -110 -3z"/>
<path d="M1463 9028 c-66 -68 -126 -133 -132 -145 -6 -12 -11 -40 -11 -63 0
-23 5 -51 11 -63 6 -12 66 -77 132 -144 l122 -123 287 0 286 0 37 43 c51 59
84 127 101 210 26 123 -10 264 -92 364 l-35 43 -292 0 -292 0 -122 -122z"/>
<path d="M2542 9053 c1 -54 3 -75 5 -48 1 28 5 69 9 93 l5 42 105 -2 c60 -1
104 -6 104 -12 0 -5 7 -17 16 -27 11 -12 16 -41 17 -108 2 -111 17 -122 17
-12 0 43 3 99 6 125 l7 46 -147 0 -146 0 2 -97z"/>
<path d="M2541 8789 c2 -124 4 -149 9 -104 7 56 2 255 -6 264 -2 2 -3 -70 -3
-160z"/>
<path d="M2807 8823 c6 -84 11 -88 12 -10 1 37 -3 67 -7 67 -5 0 -7 -26 -5
-57z"/>
<path d="M2539 8552 c-2 -30 -2 -55 1 -56 3 -1 23 1 45 5 22 3 31 7 20 8 -33
2 -47 17 -55 57 l-7 39 -4 -53z"/>
<path d="M2703 8503 c26 -2 67 -2 90 0 23 2 2 3 -48 3 -49 0 -68 -1 -42 -3z"/>
<path d="M1711 4164 c-35 -8 -89 -26 -119 -42 -66 -33 -168 -115 -164 -131 1
-7 -1 -10 -6 -7 -22 14 -99 -116 -132 -223 -19 -61 -20 -96 -20 -958 l0 -895
-51 -87 c-27 -47 -54 -93 -59 -101 -15 -24 -169 -299 -208 -370 -19 -36 -61
-110 -92 -165 -31 -55 -73 -129 -92 -165 -31 -55 -143 -257 -243 -435 -16 -27
-70 -124 -121 -215 -50 -91 -117 -209 -148 -264 -31 -54 -56 -100 -56 -102 0
-2 324 -4 721 -4 l721 0 -6 68 c-3 37 -8 135 -11 217 -4 83 -10 213 -15 290
-6 77 -14 237 -20 355 -10 202 -17 340 -55 1046 -8 155 -15 295 -15 310 -1 27
-1 28 -12 9 -6 -11 -27 -36 -45 -55 -18 -19 -48 -63 -65 -97 -18 -34 -35 -60
-38 -58 -3 2 -12 -17 -19 -42 -9 -28 -17 -40 -21 -32 -6 8 -9 6 -13 -7 -4 -18
-5 -18 -6 1 -1 17 -3 18 -11 5 -6 -10 -10 276 -10 815 0 788 1 834 20 902 21
81 45 136 65 153 8 6 11 19 8 27 -4 11 -2 14 5 9 7 -4 12 -1 12 7 0 7 11 19
24 26 13 7 30 24 37 37 7 13 14 22 17 20 2 -3 16 6 30 19 14 13 30 21 36 18 6
-4 5 0 -2 9 -11 13 -9 17 15 23 16 5 32 7 36 6 5 -1 6 3 3 8 -5 7 22 25 32 21
1 0 10 7 19 15 11 12 18 13 23 5 5 -8 9 -7 14 5 5 13 13 15 37 10 21 -5 29 -4
25 3 -8 14 -22 13 329 21 l300 7 -295 1 c-219 1 -311 -3 -359 -13z"/>
<path d="M2568 4173 c18 -2 45 -2 60 0 15 2 0 4 -33 4 -33 0 -45 -2 -27 -4z"/>
<path d="M2783 4173 c31 -2 83 -2 115 0 31 2 5 3 -58 3 -63 0 -89 -1 -57 -3z"/>
<path d="M3293 4173 c9 -2 23 -2 30 0 6 3 -1 5 -18 5 -16 0 -22 -2 -12 -5z"/>
<path d="M7358 4173 c50 -2 134 -2 185 0 50 1 9 3 -93 3 -102 0 -143 -2 -92
-3z"/>
<path d="M8558 4173 c7 -3 16 -2 19 1 4 3 -2 6 -13 5 -11 0 -14 -3 -6 -6z"/>
<path d="M8660 4173 c184 -7 378 -7 373 0 -2 4 -104 6 -226 5 -122 -1 -188 -3
-147 -5z"/>
<path d="M9075 4151 c-3 -5 0 -13 6 -17 7 -4 9 -3 5 4 -3 6 2 13 11 15 16 4
16 5 1 6 -9 0 -19 -3 -23 -8z"/>
<path d="M9125 4140 c-4 -6 6 -10 22 -10 22 0 25 2 13 10 -19 12 -27 12 -35 0z"/>
<path d="M9230 4091 c6 -12 15 -19 19 -16 5 3 12 -2 15 -11 3 -8 10 -13 15
-10 9 6 26 -21 23 -36 -1 -4 7 -10 18 -13 11 -4 20 -11 20 -16 0 -5 3 -8 8 -8
25 4 34 -3 29 -22 -3 -12 -3 -19 0 -16 7 7 41 -26 36 -36 -2 -4 3 -14 11 -23
9 -9 14 -19 12 -23 -3 -4 3 -13 13 -20 12 -9 16 -22 13 -37 -3 -17 0 -24 11
-24 10 0 18 -14 23 -42 4 -24 9 -35 12 -25 9 42 -59 187 -125 265 -25 28 -49
49 -55 46 -7 -4 -8 -2 -4 4 4 6 -12 23 -36 40 -70 47 -72 47 -58 23z"/>
<path d="M4055 3574 c-124 -47 -1028 -363 -1485 -519 -85 -29 -234 -81 -330
-116 -163 -59 -181 -63 -270 -65 -104 -2 -109 -3 -160 -26 -40 -18 -26 -24 17
-7 20 7 456 10 1471 9 1002 -1 1442 2 1437 10 -3 5 -11 10 -17 10 -17 0 -168
79 -230 121 -173 118 -314 324 -348 509 -19 103 -16 100 -85 74z"/>
<path d="M1745 2820 c-3 -6 1 -7 9 -4 18 7 21 14 7 14 -6 0 -13 -4 -16 -10z"/>
<path d="M9065 2811 c-3 -6 4 -15 15 -21 11 -6 20 -8 20 -5 0 2 24 -22 54 -54
36 -39 54 -53 53 -41 -1 10 -5 16 -11 13 -5 -4 -7 1 -3 10 4 11 2 14 -9 10 -9
-3 -14 1 -14 12 0 9 -4 14 -9 11 -11 -7 -43 28 -34 37 3 4 1 8 -5 8 -7 1 -16
3 -22 4 -5 1 -15 3 -21 4 -5 0 -7 6 -4 11 3 6 4 10 1 10 -3 0 -7 -4 -11 -9z"/>
<path d="M1651 2755 c-21 -19 -44 -35 -51 -35 -8 0 -10 -3 -7 -7 4 -3 -2 -22
-14 -42 -11 -20 -12 -25 -3 -11 10 14 42 49 71 78 60 59 62 70 4 17z"/>
<path d="M9236 2617 c3 -10 9 -15 12 -12 3 3 0 11 -7 18 -10 9 -11 8 -5 -6z"/>
<path d="M1525 2550 c-4 -17 -5 -34 -2 -36 2 -3 7 10 11 27 8 42 0 50 -9 9z"/>
<path d="M9272 2480 c0 -14 2 -19 5 -12 2 6 2 18 0 25 -3 6 -5 1 -5 -13z"/>
<path d="M1511 2444 c0 -11 3 -14 6 -6 3 7 2 16 -1 19 -3 4 -6 -2 -5 -13z"/>
<path d="M9282 2380 c0 -19 2 -27 5 -17 2 9 2 25 0 35 -3 9 -5 1 -5 -18z"/>
<path d="M9277 2313 c-4 -3 -7 -47 -7 -97 0 -50 -9 -246 -20 -436 -10 -190
-29 -538 -41 -775 -11 -236 -29 -558 -39 -715 -9 -157 -16 -286 -15 -288 1 -1
326 -1 723 0 l721 3 -103 180 c-56 99 -167 295 -246 435 -79 140 -182 325
-230 410 -48 85 -103 184 -123 220 -19 36 -112 200 -206 364 -94 165 -171 305
-171 311 0 6 -15 29 -34 50 -19 21 -32 43 -30 49 2 6 -7 16 -21 23 -14 6 -25
7 -25 2 0 -5 5 -9 11 -9 15 0 7 -72 -8 -78 -10 -3 -13 12 -13 53 0 52 2 57 20
52 11 -3 18 -1 14 4 -3 5 -12 9 -20 9 -10 0 -13 8 -10 24 3 15 -2 30 -10 37
-9 7 -22 25 -30 41 -8 15 -22 28 -30 28 -10 0 -14 6 -10 15 3 8 1 15 -4 15 -6
0 -10 6 -10 14 0 21 -26 67 -33 59z m-17 -1583 c0 -5 -4 -10 -10 -10 -5 0 -10
5 -10 10 0 6 5 10 10 10 6 0 10 -4 10 -10z"/>
</g>
</svg>
