<?xml version="1.0" encoding="UTF-8"?>
<svg version="1.1" xmlns="http://www.w3.org/2000/svg" width="512" height="512">
<path d="M0 0 C0.81176193 -0.00979385 1.62352386 -0.01958771 2.45988464 -0.02967834 C20.41740686 -0.20165841 37.76226763 -0.04106353 55.3125 4.23828125 C56.64087891 4.55176514 56.64087891 4.55176514 57.99609375 4.87158203 C108.05395283 16.99553738 150.16174641 49.72709257 177.11669922 93.21289062 C183.26712694 103.41825692 187.97225681 114.15810856 192.3125 125.23828125 C192.57401855 125.90005371 192.83553711 126.56182617 193.10498047 127.24365234 C199.58465757 143.99368511 203.37124719 162.96783954 203.55078125 180.92578125 C203.56052979 181.73767914 203.57027832 182.54957703 203.58032227 183.38607788 C203.75173951 201.36538996 203.50155732 218.65052935 199.3125 236.23828125 C199.14121582 237.01075195 198.96993164 237.78322266 198.79345703 238.57910156 C190.57279969 275.14167937 169.09912659 310.18580785 141.3125 335.23828125 C140.6525 335.56828125 139.9925 335.89828125 139.3125 336.23828125 C140.49648576 338.61809263 141.69619469 340.98874292 142.90625 343.35546875 C147.06206781 351.52372425 151.00354068 359.77743644 154.8125 368.11328125 C155.25787109 369.08249512 155.70324219 370.05170898 156.16210938 371.05029297 C156.57267578 371.95537598 156.98324219 372.86045898 157.40625 373.79296875 C157.95829102 375.00702393 157.95829102 375.00702393 158.52148438 376.24560547 C159.3125 378.23828125 159.3125 378.23828125 159.3125 380.23828125 C160.40191895 380.21209717 161.49133789 380.18591309 162.61376953 380.15893555 C166.67264097 380.06813464 170.73142345 380.01092441 174.79101562 379.96362305 C176.54475015 379.93854658 178.29838086 379.9044763 180.05175781 379.86108398 C182.57903706 379.80012521 185.10492981 379.77200406 187.6328125 379.75 C188.41117462 379.72419357 189.18953674 379.69838715 189.9914856 379.67179871 C194.07616775 379.669715 196.56315592 380.03020939 199.79248047 382.64379883 C203.65592346 386.62140091 203.70303931 389.30386503 203.671875 394.6875 C203.09289966 398.79696629 201.31335071 400.45177702 198.3125 403.23828125 C195.71548136 404.53679057 193.8363408 404.36607842 190.9266386 404.36970901 C189.77621946 404.37355016 188.62580032 404.3773913 187.44051999 404.38134885 C186.16574333 404.38048237 184.89096668 404.37961588 183.57756042 404.37872314 C182.2182128 404.38130542 180.85886593 404.38431819 179.49952012 404.38772655 C175.75116873 404.39581605 172.00283647 404.3975872 168.25447738 404.39832401 C164.21688246 404.40017119 160.17929754 404.40771682 156.14170837 404.41445923 C147.30706347 404.42805695 138.47242309 404.43406952 129.63776946 404.43846989 C124.12430395 404.4412299 118.61084019 404.44546681 113.09737587 404.44997406 C97.84069396 404.46216864 82.58401346 404.47246756 67.32732677 404.47584915 C65.86185128 404.4761785 65.86185128 404.4761785 64.36677023 404.4765145 C63.38741089 404.47673278 62.40805155 404.47695106 61.39901465 404.47717595 C59.41436589 404.47761942 57.42971712 404.47806599 55.44506836 404.47851562 C53.96837788 404.47884777 53.96837788 404.47884777 52.46185527 404.47918662 C36.50595186 404.4831356 20.5500941 404.5005918 4.59420832 404.52387515 C-11.77637061 404.54757136 -28.14692662 404.56005021 -44.51752299 404.56121707 C-53.7134825 404.56213481 -62.90938254 404.56791195 -72.1053257 404.58603668 C-79.93525587 404.60141436 -87.76510821 404.60657198 -95.59505061 404.59829858 C-99.59159347 404.59438375 -103.58797948 404.59536202 -107.58450317 404.60935593 C-111.24182952 404.62204525 -114.89888037 404.62094144 -118.55620607 404.60876521 C-120.50891154 404.60586698 -122.46162156 404.61778157 -124.41428977 404.63018727 C-125.57253216 404.62359743 -126.73077454 404.61700758 -127.92411518 404.61021805 C-129.42333357 404.61111368 -129.42333357 404.61111368 -130.9528392 404.61202741 C-134.17747179 404.17131679 -136.05955978 403.1262869 -138.6875 401.23828125 C-141.6022293 396.95514771 -141.25534323 392.21794393 -140.6875 387.23828125 C-139.74363189 383.9897156 -138.37933567 381.0438507 -136.890625 378.01171875 C-136.50058289 377.17919586 -136.11054077 376.34667297 -135.7086792 375.48892212 C-134.46938454 372.85485721 -133.20403759 370.23433729 -131.9375 367.61328125 C-131.10242778 365.84847801 -130.26907912 364.08285813 -129.4375 362.31640625 C-125.94020171 354.91316883 -122.36630953 347.55298128 -118.6875 340.23828125 C-118.02054881 338.90509022 -117.35380784 337.57179393 -116.6875 336.23828125 C-117.18378906 335.81417969 -117.68007812 335.39007813 -118.19140625 334.953125 C-141.87533427 314.50495185 -158.35109601 288.1788978 -169.6875 259.23828125 C-169.94901855 258.57650879 -170.21053711 257.91473633 -170.47998047 257.23291016 C-176.95965736 240.48287794 -180.74624839 221.50872259 -180.92578125 203.55078125 C-180.93552979 202.73883804 -180.94527832 201.92689484 -180.95532227 201.09034729 C-181.12632111 183.15417173 -181.00870498 165.7645288 -176.6875 148.23828125 C-176.39866943 147.06434814 -176.39866943 147.06434814 -176.10400391 145.86669922 C-174.83959741 140.91576085 -173.34463719 136.07069938 -171.6875 131.23828125 C-171.35129639 130.24223877 -171.35129639 130.24223877 -171.00830078 129.22607422 C-167.43529197 118.7793731 -162.88001165 108.97176324 -157.6875 99.23828125 C-157.36523438 98.62710449 -157.04296875 98.01592773 -156.7109375 97.38623047 C-151.87538315 88.28762389 -146.22837119 80.1640877 -139.6875 72.23828125 C-139.20200684 71.64982422 -138.71651367 71.06136719 -138.21630859 70.45507812 C-115.70741514 43.36036891 -88.42370077 24.06146339 -55.6875 11.23828125 C-55.02572754 10.9767627 -54.36395508 10.71524414 -53.68212891 10.44580078 C-36.9320364 3.96610057 -17.95798621 0.17965746 0 0 Z " fill="#E3C9FE" transform="translate(244.6875,103.76171875)"/>
<path d="M0 0 C4.50813152 1.45826805 7.68020877 3.98530378 11.1875 7.0625 C12.04396118 7.80330811 12.04396118 7.80330811 12.91772461 8.55908203 C14.07592682 9.56394753 15.23132077 10.57205956 16.38378906 11.58349609 C17.79683773 12.82194147 19.2216837 14.04690004 20.6484375 15.26953125 C44.21914267 35.82715275 60.66828647 62.0713577 72 91 C72.26151855 91.66177246 72.52303711 92.32354492 72.79248047 93.00537109 C79.27215757 109.75540386 83.05874719 128.72955829 83.23828125 146.6875 C83.24802979 147.49939789 83.25777832 148.31129578 83.26782227 149.14779663 C83.43923951 167.12710871 83.18905732 184.4122481 79 202 C78.82871582 202.7724707 78.65743164 203.54494141 78.48095703 204.34082031 C70.26029969 240.90339812 48.78662659 275.9475266 21 301 C20.34 301.33 19.68 301.66 19 302 C20.18398576 304.37981138 21.38369469 306.75046167 22.59375 309.1171875 C26.74956781 317.285443 30.69104068 325.53915519 34.5 333.875 C34.94537109 334.84421387 35.39074219 335.81342773 35.84960938 336.81201172 C36.26017578 337.71709473 36.67074219 338.62217773 37.09375 339.5546875 C37.64579102 340.76874268 37.64579102 340.76874268 38.20898438 342.00732422 C39 344 39 344 39 346 C40.08941895 345.97381592 41.17883789 345.94763184 42.30126953 345.9206543 C46.36014097 345.82985339 50.41892345 345.77264316 54.47851562 345.7253418 C56.23225015 345.70026533 57.98588086 345.66619505 59.73925781 345.62280273 C62.26653706 345.56184396 64.79242981 345.53372281 67.3203125 345.51171875 C68.09867462 345.48591232 68.87703674 345.4601059 69.6789856 345.43351746 C73.76366775 345.43143375 76.25065592 345.79192814 79.47998047 348.40551758 C83.34342346 352.38311966 83.39053931 355.06558378 83.359375 360.44921875 C82.78039966 364.55868504 81.00085071 366.21349577 78 369 C75.40298136 370.29850932 73.5238408 370.12779717 70.6141386 370.13142776 C69.46371946 370.13526891 68.31330032 370.13911005 67.12801999 370.1430676 C65.85324333 370.14220112 64.57846668 370.14133463 63.26506042 370.14044189 C61.9057128 370.14302417 60.54636593 370.14603694 59.18702012 370.1494453 C55.43866873 370.1575348 51.69033647 370.15930595 47.94197738 370.16004276 C43.90438246 370.16188994 39.86679754 370.16943557 35.82920837 370.17617798 C26.99456347 370.1897757 18.15992309 370.19578827 9.32526946 370.20018864 C3.81180395 370.20294865 -1.70165981 370.20718556 -7.21512413 370.21169281 C-22.47180604 370.22388739 -37.72848654 370.23418631 -52.98517323 370.2375679 C-54.45064872 370.23789725 -54.45064872 370.23789725 -55.94572977 370.23823325 C-56.92508911 370.23845153 -57.90444845 370.23866981 -58.91348535 370.2388947 C-60.89813411 370.23933817 -62.88278288 370.23978474 -64.86743164 370.24023438 C-66.34412212 370.24056652 -66.34412212 370.24056652 -67.85064473 370.24090537 C-83.80654814 370.24485435 -99.7624059 370.26231055 -115.71829168 370.2855939 C-132.08887061 370.30929011 -148.45942662 370.32176896 -164.83002299 370.32293582 C-174.0259825 370.32385356 -183.22188254 370.3296307 -192.4178257 370.34775543 C-200.24775587 370.36313311 -208.07760821 370.36829073 -215.90755061 370.36001733 C-219.90409347 370.3561025 -223.90047948 370.35708077 -227.89700317 370.37107468 C-231.55432952 370.383764 -235.21138037 370.38266019 -238.86870607 370.37048396 C-240.82141154 370.36758573 -242.77412156 370.37950032 -244.72678977 370.39190602 C-245.88503216 370.38531618 -247.04327454 370.37872633 -248.23661518 370.3719368 C-249.73583357 370.37283243 -249.73583357 370.37283243 -251.2653392 370.37374616 C-254.48997179 369.93303554 -256.37205978 368.88800565 -259 367 C-261.9147293 362.71686646 -261.56784323 357.97966268 -261 353 C-260.05613189 349.75143435 -258.69183567 346.80556945 -257.203125 343.7734375 C-256.81308289 342.94091461 -256.42304077 342.10839172 -256.0211792 341.25064087 C-254.78188454 338.61657596 -253.51653759 335.99605604 -252.25 333.375 C-251.41492778 331.61019676 -250.58157912 329.84457688 -249.75 328.078125 C-246.25270171 320.67488758 -242.67880953 313.31470003 -239 306 C-238.33304881 304.66680897 -237.66630784 303.33351268 -237 302 C-237.49628906 301.57589844 -237.99257812 301.15179688 -238.50390625 300.71484375 C-262.18783427 280.2666706 -278.66359601 253.94061655 -290 225 C-290.26151855 224.33822754 -290.52303711 223.67645508 -290.79248047 222.99462891 C-297.77045704 204.95648683 -301.15575875 185.0966164 -301.25 165.8125 C-301.270625 164.74580078 -301.29125 163.67910156 -301.3125 162.58007812 C-301.32023437 161.03416992 -301.32023437 161.03416992 -301.328125 159.45703125 C-301.3374707 158.52866455 -301.34681641 157.60029785 -301.35644531 156.64379883 C-300.79046763 152.44587261 -299.01432476 149.81709494 -295.75 147.1875 C-291.08830019 145.17449326 -287.47134375 145.46239363 -282.75 147.1875 C-279.56519514 149.28657593 -278.60358342 150.55321724 -277 154 C-276.70035886 156.90709531 -276.54255491 159.65358899 -276.5 162.5625 C-275.09373843 199.93453069 -262.11929626 237.83050348 -237 266 C-235.8553125 267.30710937 -235.8553125 267.30710937 -234.6875 268.640625 C-232.48779173 271.12272825 -230.25524719 273.56836476 -228 276 C-227.19369141 276.88751953 -227.19369141 276.88751953 -226.37109375 277.79296875 C-222.6345017 281.73558843 -218.49393626 285.12514484 -214.25 288.5 C-213.42786011 289.15826782 -213.42786011 289.15826782 -212.58911133 289.82983398 C-211.44727218 290.72154192 -210.28666974 291.58968164 -209.1096344 292.43438721 C-207 294 -207 294 -205.01004028 295.77998352 C-195.56351109 303.24060936 -184.83326011 301.95953479 -173.3515625 301.82421875 C-171.130729 301.82130887 -168.90989089 301.82093286 -166.6890564 301.82295227 C-162.04052344 301.81974361 -157.39294048 301.79289537 -152.74462891 301.74780273 C-146.84685301 301.69146873 -140.95027175 301.68291669 -135.05227089 301.69121075 C-130.4636264 301.69403911 -125.87523806 301.6762299 -121.28666306 301.65207863 C-119.11582531 301.64200528 -116.94495856 301.63676975 -114.77409744 301.63687706 C-81.80065094 301.59319192 -49.48714378 293.37199112 -23 273 C-22.07058594 272.29230469 -21.14117187 271.58460938 -20.18359375 270.85546875 C-1.56752642 256.15857349 10.84542945 238.51220304 21.75 217.65234375 C22.265625 216.67394531 22.78125 215.69554687 23.3125 214.6875 C23.74175781 213.84574219 24.17101562 213.00398437 24.61328125 212.13671875 C26.17274526 209.73382632 27.53920007 208.45705259 30 207 C35.40894804 206.48486209 38.57536972 206.58671379 43 210 C45.14694421 211.90839485 46.37477365 213.56216047 48 216 C63.93302293 174.91382918 61.10077642 128.67018681 43.59692383 88.61108398 C32.84398005 64.93857513 14.99756908 39.01537122 -7.3515625 24.81640625 C-8.22554688 24.21699219 -9.09953125 23.61757812 -10 23 C-10 22.34 -10 21.68 -10 21 C-9.07767578 20.76216797 -9.07767578 20.76216797 -8.13671875 20.51953125 C-3.04323702 19.06846433 -3.04323702 19.06846433 1.0625 15.875 C2.58719478 11.19926935 3.0239825 6.28728658 0.98046875 1.72265625 C0.65691406 1.15417969 0.33335937 0.58570313 0 0 Z " fill="#444B54" transform="translate(365,138)"/>
<path d="M0 0 C0.81176193 -0.00979385 1.62352386 -0.01958771 2.45988464 -0.02967834 C20.41740686 -0.20165841 37.76226763 -0.04106353 55.3125 4.23828125 C56.64087891 4.55176514 56.64087891 4.55176514 57.99609375 4.87158203 C78.51802636 9.84197028 107.90402711 18.82844176 122.25 35.48828125 C124.30042168 40.79525502 124.09393241 45.40361385 121.875 50.61328125 C118.38006622 54.19345732 115.39384584 56.05847978 110.3125 56.23828125 C106.27152245 54.83948133 102.88480321 52.55911092 99.3125 50.23828125 C60.08512707 26.40947955 13.70151051 19.35101031 -31.01708984 29.83007812 C-60.47193108 37.271558 -85.9711498 53.33956472 -107.6875 74.23828125 C-108.3784375 74.86605469 -109.069375 75.49382812 -109.78125 76.140625 C-140.96818671 105.34642433 -152.26417769 147.37615389 -156.6875 188.23828125 C-158.1875 186.86328125 -158.1875 186.86328125 -159.6875 185.23828125 C-159.6875 184.57828125 -159.6875 183.91828125 -159.6875 183.23828125 C-165.15408953 181.10497802 -169.75867547 180.52234637 -175.5 181.92578125 C-178.30463933 183.60856485 -178.79518411 185.15573545 -179.6875 188.23828125 C-180.0175 188.23828125 -180.3475 188.23828125 -180.6875 188.23828125 C-181.71453125 168.83880217 -177.96725134 149.55081715 -171.6875 131.23828125 C-171.35129639 130.24223877 -171.35129639 130.24223877 -171.00830078 129.22607422 C-167.43529197 118.7793731 -162.88001165 108.97176324 -157.6875 99.23828125 C-157.36523438 98.62710449 -157.04296875 98.01592773 -156.7109375 97.38623047 C-151.87538315 88.28762389 -146.22837119 80.1640877 -139.6875 72.23828125 C-139.20200684 71.64982422 -138.71651367 71.06136719 -138.21630859 70.45507812 C-115.70741514 43.36036891 -88.42370077 24.06146339 -55.6875 11.23828125 C-55.02572754 10.9767627 -54.36395508 10.71524414 -53.68212891 10.44580078 C-36.9320364 3.96610057 -17.95798621 0.17965746 0 0 Z " fill="#C08CE5" transform="translate(244.6875,103.76171875)"/>
<path d="M0 0 C5.96766725 4.03885506 7.16794182 10.36057736 8.99609375 16.9140625 C17.29982966 46.61228708 37.19359061 71.45502456 63.82763672 86.73950195 C81.18581839 96.40883756 100.6877812 102.42149928 120.67578125 102.40625 C121.99715088 102.4072168 121.99715088 102.4072168 123.34521484 102.40820312 C130.01303017 102.35502497 136.36200589 101.6689413 142.95703125 100.6796875 C154.35179044 99.07899514 154.35179044 99.07899514 159.23828125 102.03125 C162.90646861 106.04332992 163.84206045 108.57236693 163.65234375 113.8671875 C163.04919127 117.29263839 161.89059601 119.28847428 159.484375 121.78125 C154.65129072 124.87442394 148.81761148 125.37043078 143.23828125 126.21875 C142.46162109 126.39075928 141.68496094 126.56276855 140.88476562 126.73999023 C127.44541646 129.17122305 111.57443907 127.97312565 98.23828125 125.21875 C97.54331543 125.08452637 96.84834961 124.95030273 96.13232422 124.81201172 C59.2604874 117.65942984 25.61086533 96.28200885 4.23828125 65.21875 C-5.80131109 50.31160292 -20.76848253 25.86068544 -17.76171875 7.21875 C-15.9713726 3.84997622 -13.66497414 1.72827868 -10.32421875 -0.15625 C-6.5125369 -1.0859285 -3.71105671 -1.64570142 0 0 Z " fill="#FEFEFE" transform="translate(132.76171875,312.78125)"/>
<path d="M0 0 C3.18480486 2.09907593 4.14641658 3.36571724 5.75 6.8125 C6.04964114 9.71959531 6.20744509 12.46608899 6.25 15.375 C7.65626157 52.74703069 20.63070374 90.64300348 45.75 118.8125 C46.513125 119.68390625 47.27625 120.5553125 48.0625 121.453125 C50.26220827 123.93522825 52.49475281 126.38086476 54.75 128.8125 C55.55630859 129.70001953 55.55630859 129.70001953 56.37890625 130.60546875 C64.59975165 139.27959385 74.63495899 146.42620729 84.8359375 152.5703125 C85.46757812 152.98023438 86.09921875 153.39015625 86.75 153.8125 C86.75 154.1425 86.75 154.4725 86.75 154.8125 C81.23829403 155.18058544 75.72785115 155.48530041 70.20947266 155.73413086 C68.33680811 155.82719955 66.46488879 155.93692592 64.59423828 156.06420898 C49.11762076 157.10011058 49.11762076 157.10011058 43.43383789 154.0090332 C40.91228546 151.75829583 38.83694647 149.46520804 36.75 146.8125 C35.71433002 145.76997633 34.66780616 144.73799222 33.60546875 143.72265625 C15.51555596 124.41438916 2.3707312 102.37318899 -7.25 77.8125 C-7.51151855 77.15072754 -7.77303711 76.48895508 -8.04248047 75.80712891 C-15.02045704 57.76898683 -18.40575875 37.9091164 -18.5 18.625 C-18.520625 17.55830078 -18.54125 16.49160156 -18.5625 15.39257812 C-18.56765625 14.36197266 -18.5728125 13.33136719 -18.578125 12.26953125 C-18.5874707 11.34116455 -18.59681641 10.41279785 -18.60644531 9.45629883 C-18.04046763 5.25837261 -16.26432476 2.62959494 -13 0 C-8.33830019 -2.01300674 -4.72134375 -1.72510637 0 0 Z " fill="#80489B" transform="translate(82.25,285.1875)"/>
<path d="M0 0 C2.8125 1.3125 2.8125 1.3125 5 3 C5.556875 3.4125 6.11375 3.825 6.6875 4.25 C8.77401966 7.03202621 9.84378916 9.55107966 10 13 C8.83890201 16.96247122 7.01140635 20.52454904 5.125 24.1875 C4.61195313 25.21544678 4.09890625 26.24339355 3.5703125 27.30249023 C-0.13660636 34.61033325 -4.05714557 41.45024803 -9 48 C-10.14082031 49.57974609 -10.14082031 49.57974609 -11.3046875 51.19140625 C-23.01639645 67.04364143 -37.54599348 81.13085639 -54 92 C-54.71118988 92.51182831 -55.42237976 93.02365662 -56.15512085 93.55099487 C-59.73754973 95.37566212 -62.25556937 95.36137011 -66.26879883 95.34057617 C-66.98153961 95.34101425 -67.6942804 95.34145233 -68.42861938 95.34190369 C-70.7717073 95.33982272 -73.11406918 95.31652542 -75.45703125 95.29296875 C-77.08655913 95.28737031 -78.71609208 95.28310138 -80.34562683 95.28010559 C-84.62501071 95.26867629 -88.90408691 95.2392258 -93.18334961 95.20599365 C-97.55383137 95.17525134 -101.92436305 95.16159138 -106.29492188 95.14648438 C-114.86342211 95.11435408 -123.43167273 95.06318114 -132 95 C-132 94.67 -132 94.34 -132 94 C-131.18716553 93.86537354 -131.18716553 93.86537354 -130.35791016 93.72802734 C-105.16932888 89.46893474 -81.47600531 81.74865912 -61 66 C-60.07058594 65.29230469 -59.14117187 64.58460938 -58.18359375 63.85546875 C-39.56752642 49.15857349 -27.15457055 31.51220304 -16.25 10.65234375 C-15.734375 9.67394531 -15.21875 8.69554687 -14.6875 7.6875 C-14.25824219 6.84574219 -13.82898438 6.00398438 -13.38671875 5.13671875 C-10.01249604 -0.06243569 -5.95769677 -0.89009414 0 0 Z " fill="#81499C" transform="translate(403,345)"/>
<path d="M0 0 C3.00603299 2.12474621 4.5607278 3.8032382 5.3515625 7.44921875 C5.53133666 12.46042338 5.15692447 16.08446096 1.8203125 20 C-1.43058498 21.74564999 -4.8465597 22.97676435 -8.3046875 24.25 C-36.85355259 35.37332823 -60.47769382 52.16514454 -78.57421875 77.1875 C-81.4472346 80.43100207 -83.77478817 80.95428556 -88.0546875 81.4375 C-92.84681018 81.33897037 -94.90142342 79.35822174 -98.1796875 76 C-100.36021773 71.63893954 -100.34883065 67.69281068 -99.1796875 63 C-95.78118164 57.01642696 -90.84581651 52.00343954 -86.1796875 47 C-85.6134668 46.38157227 -85.04724609 45.76314453 -84.46386719 45.12597656 C-67.3010768 26.53546723 -46.3423776 12.93439609 -23.1796875 3 C-21.68115234 2.34837891 -21.68115234 2.34837891 -20.15234375 1.68359375 C-13.59431471 -0.9561739 -6.75386162 -3.09854584 0 0 Z " fill="#FEFEFE" transform="translate(217.1796875,136)"/>
<path d="M0 0 C36.79321677 -1.79966821 76.50871847 10.94501947 106 33 C109.17056613 36.68194776 109.53990916 40.07027284 109.3359375 44.78515625 C108.77510397 48.48274472 107.60385014 50.33264132 105 53 C102.03987342 54.95294658 99.55894488 55.8740681 96 56 C91.95902245 54.60120008 88.57230321 52.32082967 85 50 C58.3177049 33.79174869 30.66595378 27.55123443 0 24 C3.75 21 3.75 21 6 21 C8.13588189 15.52680264 8.65537405 10.9491832 7.375 5.1875 C5.4591237 2.13951497 3.409276 1.81526165 0 1 C0 0.67 0 0.34 0 0 Z " fill="#9861BA" transform="translate(259,104)"/>
<path d="M0 0 C2.70552388 2.19823815 4.44778333 3.89556667 6 7 C6.01953125 8.98828125 6.01953125 8.98828125 5.8125 11.3125 C5.75707031 12.07175781 5.70164063 12.83101562 5.64453125 13.61328125 C4.73598106 16.97767012 3.51677841 18.56606226 1 21 C-1.80125698 22.38291789 -4.71533872 23.3023673 -7.6875 24.25 C-14.53713635 26.59782301 -20.98673825 29.27158876 -27.375 32.6875 C-28.06940186 33.05584961 -28.76380371 33.42419922 -29.47924805 33.80371094 C-33.31153387 35.89808323 -36.59948798 38.24234096 -40 41 C-43.65288193 42.21762731 -46.15754136 42.39075851 -50 42 C-53.64654216 39.92810104 -56.76412135 37.07839955 -58 33 C-58.53796487 28.87560268 -58.10036303 26.00229897 -55.55859375 22.625 C-44.11666528 10.69557082 -16.89306878 -4.55990443 0 0 Z " fill="#FEFEFF" transform="translate(236,180)"/>
<path d="M0 0 C3.12578143 1.6720747 5.39281175 3.7856235 7 7 C7.51512617 11.09157355 7.94367269 15.23589546 5.953125 18.95703125 C3.55501226 21.85592636 1.60351712 23.79811835 -2.171875 24.2734375 C-9.98876369 24.58137554 -9.98876369 24.58137554 -13.5625 21.625 C-17.3057723 17.59378368 -17.39037018 14.90519941 -17.359375 9.55078125 C-16.78039966 5.44131496 -15.00085071 3.78650423 -12 1 C-8.27533151 -0.86233425 -4.05504687 -0.57130829 0 0 Z " fill="#434B54" transform="translate(501,484)"/>
<path d="M0 0 C3.12578143 1.6720747 5.39281175 3.7856235 7 7 C7.51512617 11.09157355 7.94367269 15.23589546 5.953125 18.95703125 C3.55501226 21.85592636 1.60351712 23.79811835 -2.171875 24.2734375 C-9.98876369 24.58137554 -9.98876369 24.58137554 -13.5625 21.625 C-17.3057723 17.59378368 -17.39037018 14.90519941 -17.359375 9.55078125 C-16.78039966 5.44131496 -15.00085071 3.78650423 -12 1 C-8.27533151 -0.86233425 -4.05504687 -0.57130829 0 0 Z " fill="#D57CF4" transform="translate(41,248)"/>
<path d="M0 0 C3.12578143 1.6720747 5.39281175 3.7856235 7 7 C7.51512617 11.09157355 7.94367269 15.23589546 5.953125 18.95703125 C3.55501226 21.85592636 1.60351712 23.79811835 -2.171875 24.2734375 C-9.98876369 24.58137554 -9.98876369 24.58137554 -13.5625 21.625 C-17.3057723 17.59378368 -17.39037018 14.90519941 -17.359375 9.55078125 C-16.78039966 5.44131496 -15.00085071 3.78650423 -12 1 C-8.27533151 -0.86233425 -4.05504687 -0.57130829 0 0 Z " fill="#C08BE4" transform="translate(481,128)"/>
<path d="M0 0 C3.12578143 1.6720747 5.39281175 3.7856235 7 7 C7.51512617 11.09157355 7.94367269 15.23589546 5.953125 18.95703125 C3.55501226 21.85592636 1.60351712 23.79811835 -2.171875 24.2734375 C-9.98876369 24.58137554 -9.98876369 24.58137554 -13.5625 21.625 C-17.3057723 17.59378368 -17.39037018 14.90519941 -17.359375 9.55078125 C-16.78039966 5.44131496 -15.00085071 3.78650423 -12 1 C-8.27533151 -0.86233425 -4.05504687 -0.57130829 0 0 Z " fill="#C08BE4" transform="translate(121,48)"/>
<path d="M0 0 C3.12578143 1.6720747 5.39281175 3.7856235 7 7 C7.51512617 11.09157355 7.94367269 15.23589546 5.953125 18.95703125 C3.55501226 21.85592636 1.60351712 23.79811835 -2.171875 24.2734375 C-9.98876369 24.58137554 -9.98876369 24.58137554 -13.5625 21.625 C-17.3057723 17.59378368 -17.39037018 14.90519941 -17.359375 9.55078125 C-16.78039966 5.44131496 -15.00085071 3.78650423 -12 1 C-8.27533151 -0.86233425 -4.05504687 -0.57130829 0 0 Z " fill="#80479A" transform="translate(401,8)"/>
<path d="M0 0 C4.08998175 1.80720124 6.66247347 4.19069751 9 8 C9.62819266 13.0255413 9.03320735 15.95572354 6 20 C3.24705395 23.21177039 0.96958591 23.86947882 -3.25 24.4375 C-7.60986433 23.92884916 -9.47909481 22.88015938 -12.6171875 19.91796875 C-15.43606209 16.00817376 -15.36594856 11.52410671 -14.6953125 6.8984375 C-12.48202133 0.85540656 -5.77031868 -0.85486203 0 0 Z " fill="#FEFDFE" transform="translate(107,248)"/>
</svg>
